<mxfile host="app.diagrams.net" modified="2023-10-31T15:56:43.603Z" agent="Mozilla/5.0 (Windows NT 10.0; Win64; x64) AppleWebKit/537.36 (KHTML, like Gecko) Chrome/118.0.0.0 Safari/537.36" etag="lBKVigA35lsuELGPdH2a" version="22.0.8" type="github">
  <diagram name="Page-1" id="hqt7RFx1DsnVB7Hn0hYk">
    <mxGraphModel dx="1050" dy="577" grid="1" gridSize="10" guides="1" tooltips="1" connect="1" arrows="1" fold="1" page="1" pageScale="1" pageWidth="850" pageHeight="1100" math="0" shadow="0">
      <root>
        <mxCell id="0" />
        <mxCell id="1" parent="0" />
        <mxCell id="OPHxcGUGgJmW-ScGqxYM-1" value="" style="image;aspect=fixed;perimeter=ellipsePerimeter;html=1;align=center;shadow=0;dashed=0;spacingTop=3;image=img/lib/active_directory/user.svg;" vertex="1" parent="1">
          <mxGeometry x="70" y="150" width="18.5" height="50" as="geometry" />
        </mxCell>
        <mxCell id="OPHxcGUGgJmW-ScGqxYM-3" value="" style="rounded=1;whiteSpace=wrap;html=1;" vertex="1" parent="1">
          <mxGeometry x="190" y="75" width="510" height="340" as="geometry" />
        </mxCell>
        <mxCell id="OPHxcGUGgJmW-ScGqxYM-2" value="" style="image;html=1;image=img/lib/clip_art/computers/Database_128x128.png" vertex="1" parent="1">
          <mxGeometry x="600" y="300" width="80" height="80" as="geometry" />
        </mxCell>
        <mxCell id="OPHxcGUGgJmW-ScGqxYM-14" value="" style="edgeStyle=orthogonalEdgeStyle;rounded=0;orthogonalLoop=1;jettySize=auto;html=1;" edge="1" parent="1" source="OPHxcGUGgJmW-ScGqxYM-4" target="OPHxcGUGgJmW-ScGqxYM-5">
          <mxGeometry relative="1" as="geometry" />
        </mxCell>
        <mxCell id="OPHxcGUGgJmW-ScGqxYM-4" value="" style="sketch=0;points=[[0,0,0],[0.25,0,0],[0.5,0,0],[0.75,0,0],[1,0,0],[0,1,0],[0.25,1,0],[0.5,1,0],[0.75,1,0],[1,1,0],[0,0.25,0],[0,0.5,0],[0,0.75,0],[1,0.25,0],[1,0.5,0],[1,0.75,0]];outlineConnect=0;fontColor=#232F3E;fillColor=#DD344C;strokeColor=#ffffff;dashed=0;verticalLabelPosition=bottom;verticalAlign=top;align=center;html=1;fontSize=12;fontStyle=0;aspect=fixed;shape=mxgraph.aws4.resourceIcon;resIcon=mxgraph.aws4.amplify;" vertex="1" parent="1">
          <mxGeometry x="250" y="130" width="78" height="78" as="geometry" />
        </mxCell>
        <mxCell id="OPHxcGUGgJmW-ScGqxYM-16" value="" style="edgeStyle=orthogonalEdgeStyle;rounded=0;orthogonalLoop=1;jettySize=auto;html=1;" edge="1" parent="1" source="OPHxcGUGgJmW-ScGqxYM-5" target="OPHxcGUGgJmW-ScGqxYM-11">
          <mxGeometry relative="1" as="geometry" />
        </mxCell>
        <mxCell id="OPHxcGUGgJmW-ScGqxYM-5" value="Amazon API Gateway" style="sketch=0;outlineConnect=0;fontColor=#232F3E;gradientColor=none;strokeColor=#ffffff;fillColor=#232F3E;dashed=0;verticalLabelPosition=middle;verticalAlign=bottom;align=center;html=1;whiteSpace=wrap;fontSize=10;fontStyle=1;spacing=3;shape=mxgraph.aws4.productIcon;prIcon=mxgraph.aws4.api_gateway;" vertex="1" parent="1">
          <mxGeometry x="249" y="300" width="80" height="110" as="geometry" />
        </mxCell>
        <mxCell id="OPHxcGUGgJmW-ScGqxYM-9" style="edgeStyle=orthogonalEdgeStyle;rounded=0;orthogonalLoop=1;jettySize=auto;html=1;exitX=1;exitY=0.5;exitDx=0;exitDy=0;" edge="1" parent="1" source="OPHxcGUGgJmW-ScGqxYM-1">
          <mxGeometry relative="1" as="geometry">
            <mxPoint x="250" y="175" as="targetPoint" />
          </mxGeometry>
        </mxCell>
        <mxCell id="OPHxcGUGgJmW-ScGqxYM-17" value="" style="edgeStyle=orthogonalEdgeStyle;rounded=0;orthogonalLoop=1;jettySize=auto;html=1;" edge="1" parent="1" source="OPHxcGUGgJmW-ScGqxYM-11" target="OPHxcGUGgJmW-ScGqxYM-2">
          <mxGeometry relative="1" as="geometry" />
        </mxCell>
        <mxCell id="OPHxcGUGgJmW-ScGqxYM-11" value="" style="outlineConnect=0;dashed=0;verticalLabelPosition=bottom;verticalAlign=top;align=center;html=1;shape=mxgraph.aws3.lambda_function;fillColor=#F58534;gradientColor=none;" vertex="1" parent="1">
          <mxGeometry x="430" y="304" width="69" height="72" as="geometry" />
        </mxCell>
        <mxCell id="OPHxcGUGgJmW-ScGqxYM-13" value="" style="edgeStyle=orthogonalEdgeStyle;rounded=0;orthogonalLoop=1;jettySize=auto;html=1;" edge="1" parent="1" source="OPHxcGUGgJmW-ScGqxYM-12" target="OPHxcGUGgJmW-ScGqxYM-11">
          <mxGeometry relative="1" as="geometry" />
        </mxCell>
        <mxCell id="OPHxcGUGgJmW-ScGqxYM-12" value="" style="outlineConnect=0;dashed=0;verticalLabelPosition=bottom;verticalAlign=top;align=center;html=1;shape=mxgraph.aws3.iam;fillColor=#759C3E;gradientColor=none;" vertex="1" parent="1">
          <mxGeometry x="443.5" y="134.5" width="42" height="81" as="geometry" />
        </mxCell>
        <mxCell id="OPHxcGUGgJmW-ScGqxYM-18" value="Lambda" style="text;html=1;strokeColor=none;fillColor=none;align=center;verticalAlign=middle;whiteSpace=wrap;rounded=0;" vertex="1" parent="1">
          <mxGeometry x="430" y="380" width="60" height="30" as="geometry" />
        </mxCell>
        <mxCell id="OPHxcGUGgJmW-ScGqxYM-19" value="IAM" style="text;html=1;strokeColor=none;fillColor=none;align=center;verticalAlign=middle;whiteSpace=wrap;rounded=0;" vertex="1" parent="1">
          <mxGeometry x="395" y="150" width="60" height="30" as="geometry" />
        </mxCell>
        <mxCell id="OPHxcGUGgJmW-ScGqxYM-20" value="Amplify" style="text;html=1;strokeColor=none;fillColor=none;align=center;verticalAlign=middle;whiteSpace=wrap;rounded=0;" vertex="1" parent="1">
          <mxGeometry x="259" y="100" width="60" height="30" as="geometry" />
        </mxCell>
        <mxCell id="OPHxcGUGgJmW-ScGqxYM-21" value="DynamoDB&amp;nbsp;" style="text;html=1;strokeColor=none;fillColor=none;align=center;verticalAlign=middle;whiteSpace=wrap;rounded=0;" vertex="1" parent="1">
          <mxGeometry x="570" y="274" width="60" height="30" as="geometry" />
        </mxCell>
      </root>
    </mxGraphModel>
  </diagram>
</mxfile>
